<svg xmlns="http://www.w3.org/2000/svg" viewBox="0 0 80 120">
  <defs>
    <linearGradient id="shield" x1="0" y1="0" x2="0" y2="1">
      <stop offset="0%" stop-color="#C62840"/>
      <stop offset="100%" stop-color="#891428"/>
    </linearGradient>
    <linearGradient id="bronze" x1="0.2" y1="0" x2="0.8" y2="1">
      <stop offset="0%" stop-color="#ECD48E"/>
      <stop offset="50%" stop-color="#C9A55A"/>
      <stop offset="100%" stop-color="#A07828"/>
    </linearGradient>
  </defs>

  <path d="M 22 20 C 26 10, 32 4, 37 3 C 42 4, 48 10, 52 20 C 47 15, 41 11, 37 10 C 33 11, 27 15, 22 20 Z"
        fill="url(#bronze)" opacity="0.8"/>

  <path d="M 37 16 L 74 30 L 71 78 Q 37 116 3 78 L 0 30 Z" fill="url(#shield)"/>

  <path d="M 37 24 L 66 36 L 64 74 Q 37 106 10 74 L 8 36 Z"
        fill="none" stroke="url(#bronze)" stroke-width="1.5" opacity="0.35"/>
  <path d="M 37 31 L 60 41 L 58 70 Q 37 97 16 70 L 14 41 Z"
        fill="none" stroke="url(#bronze)" stroke-width="0.8" opacity="0.18"/>

  <path d="M 37 16 L 74 30 L 72 48 Q 37 56 2 48 L 0 30 Z"
        fill="white" opacity="0.07"/>

  <path d="M 37 36 L 56 92 L 46 92 L 37 56 L 28 92 L 18 92 Z" fill="url(#bronze)"/>
</svg>
